<svg width="20" height="20" viewBox="0 0 20 20" fill="none" xmlns="http://www.w3.org/2000/svg">
<path d="M4.16699 1.66699C4.48824 1.66712 4.78077 1.85158 4.91895 2.1416L6.10938 4.6416C6.13933 4.70451 6.16138 4.77147 6.1748 4.83984L7.33398 10.7393L14.9941 9.74023C15.3391 9.69524 15.6198 9.4405 15.6982 9.10156L16.6885 4.8125C16.7921 4.36417 17.2391 4.085 17.6875 4.18848C18.1358 4.29206 18.415 4.73912 18.3115 5.1875L17.3223 9.47559C17.0875 10.4929 16.2453 11.2574 15.21 11.3926L6.77441 12.4932C6.7341 12.4984 6.69385 12.5005 6.6543 12.5H5.83301C5.37303 12.5002 5.00018 12.873 5 13.333C5 13.7931 5.37292 14.1668 5.83301 14.167H15.833C17.2137 14.167 18.333 15.2863 18.333 16.667C18.3328 18.0476 17.2136 19.167 15.833 19.167C14.4526 19.1668 13.3332 18.0474 13.333 16.667C13.333 16.3748 13.3835 16.0937 13.4756 15.833H9.02441C9.11654 16.0937 9.16699 16.3748 9.16699 16.667C9.16682 18.0474 8.04745 19.1668 6.66699 19.167C5.28639 19.167 4.16717 18.0476 4.16699 16.667C4.16699 16.2215 4.28303 15.8027 4.4873 15.4404C3.79332 14.9962 3.33301 14.2181 3.33301 13.333C3.33318 12.0124 4.35791 10.9313 5.65527 10.8398L4.55957 5.26367L3.64062 3.33301H1.66699C1.20675 3.33301 0.833008 2.96024 0.833008 2.5C0.833008 2.03976 1.20675 1.66699 1.66699 1.66699H4.16699ZM6.66699 15.833C6.20675 15.833 5.83301 16.2068 5.83301 16.667C5.83318 17.1271 6.20686 17.5 6.66699 17.5C7.12697 17.4998 7.49982 17.127 7.5 16.667C7.5 16.2069 7.12708 15.8332 6.66699 15.833ZM15.833 15.833C15.3729 15.8332 15 16.2069 15 16.667C15.0002 17.127 15.373 17.4998 15.833 17.5C16.2931 17.5 16.6668 17.1271 16.667 16.667C16.667 16.2068 16.2932 15.833 15.833 15.833ZM11.667 2.5C12.127 2.50018 12.4998 2.87303 12.5 3.33301V5H14.167C14.627 5.00018 14.9998 5.37303 15 5.83301C15 6.29314 14.6271 6.66682 14.167 6.66699H12.5V8.33301C12.5 8.79314 12.1271 9.16682 11.667 9.16699C11.2068 9.16699 10.833 8.79325 10.833 8.33301V6.66699H9.16699C8.70675 6.66699 8.33301 6.29325 8.33301 5.83301C8.33318 5.37292 8.70686 5 9.16699 5H10.833V3.33301C10.8332 2.87292 11.2069 2.5 11.667 2.5Z" fill="white"/>
</svg>
